<mxfile host="65bd71144e">
    <diagram id="SAr8rAcl7uwxu1AluBUJ" name="Page-1">
        <mxGraphModel dx="894" dy="1080" grid="1" gridSize="10" guides="1" tooltips="1" connect="1" arrows="1" fold="1" page="1" pageScale="1" pageWidth="850" pageHeight="1100" math="0" shadow="0">
            <root>
                <mxCell id="0"/>
                <mxCell id="1" parent="0"/>
                <mxCell id="3" value="&lt;font color=&quot;#000000&quot;&gt;User&lt;/font&gt;" style="text;html=1;align=center;verticalAlign=middle;dashed=0;fillColor=#ffffff;strokeColor=#000000;" vertex="1" parent="1">
                    <mxGeometry x="40" y="80" width="90" height="40" as="geometry"/>
                </mxCell>
                <mxCell id="4" value="&lt;font color=&quot;#000000&quot;&gt;Main&lt;/font&gt;" style="text;html=1;align=center;verticalAlign=middle;dashed=0;fillColor=#ffffff;strokeColor=#000000;" vertex="1" parent="1">
                    <mxGeometry x="240" y="80" width="110" height="40" as="geometry"/>
                </mxCell>
                <mxCell id="5" value="&lt;font color=&quot;#000000&quot;&gt;Class SudokuPuzzle&lt;/font&gt;" style="text;html=1;align=center;verticalAlign=middle;dashed=0;fillColor=#ffffff;strokeColor=#000000;" vertex="1" parent="1">
                    <mxGeometry x="440" y="80" width="130" height="40" as="geometry"/>
                </mxCell>
                <mxCell id="7" value="&lt;font color=&quot;#000000&quot;&gt;User&lt;/font&gt;" style="text;html=1;align=center;verticalAlign=middle;dashed=0;fillColor=#ffffff;strokeColor=#000000;" vertex="1" parent="1">
                    <mxGeometry x="40" y="630" width="90" height="40" as="geometry"/>
                </mxCell>
                <mxCell id="8" value="&lt;font color=&quot;#000000&quot;&gt;Main&lt;/font&gt;" style="text;html=1;align=center;verticalAlign=middle;dashed=0;fillColor=#ffffff;strokeColor=#000000;" vertex="1" parent="1">
                    <mxGeometry x="240" y="630" width="110" height="40" as="geometry"/>
                </mxCell>
                <mxCell id="9" value="&lt;font color=&quot;#000000&quot;&gt;Class SudokuPuzzle&lt;/font&gt;" style="text;html=1;align=center;verticalAlign=middle;dashed=0;fillColor=#ffffff;strokeColor=#000000;" vertex="1" parent="1">
                    <mxGeometry x="440" y="630" width="130" height="40" as="geometry"/>
                </mxCell>
                <mxCell id="11" value="" style="endArrow=none;startArrow=none;endFill=0;startFill=0;endSize=8;html=1;verticalAlign=bottom;labelBackgroundColor=none;strokeWidth=3;exitX=0.5;exitY=1;exitDx=0;exitDy=0;" edge="1" parent="1" source="3" target="7">
                    <mxGeometry width="160" relative="1" as="geometry">
                        <mxPoint x="170" y="480" as="sourcePoint"/>
                        <mxPoint x="330" y="480" as="targetPoint"/>
                        <Array as="points">
                            <mxPoint x="85" y="200"/>
                        </Array>
                    </mxGeometry>
                </mxCell>
                <mxCell id="12" value="" style="endArrow=none;startArrow=none;endFill=0;startFill=0;endSize=8;html=1;verticalAlign=bottom;labelBackgroundColor=none;strokeWidth=3;exitX=0.5;exitY=1;exitDx=0;exitDy=0;entryX=0.5;entryY=0;entryDx=0;entryDy=0;" edge="1" parent="1" source="15" target="8">
                    <mxGeometry width="160" relative="1" as="geometry">
                        <mxPoint x="294.5" y="110" as="sourcePoint"/>
                        <mxPoint x="294.5" y="620" as="targetPoint"/>
                    </mxGeometry>
                </mxCell>
                <mxCell id="13" value="" style="endArrow=none;startArrow=none;endFill=0;startFill=0;endSize=8;html=1;verticalAlign=bottom;labelBackgroundColor=none;strokeWidth=3;exitX=0.5;exitY=1;exitDx=0;exitDy=0;entryX=0.5;entryY=0;entryDx=0;entryDy=0;" edge="1" parent="1">
                    <mxGeometry width="160" relative="1" as="geometry">
                        <mxPoint x="504.5" y="120" as="sourcePoint"/>
                        <mxPoint x="504.5" y="630" as="targetPoint"/>
                    </mxGeometry>
                </mxCell>
                <mxCell id="14" value="" style="endArrow=open;startArrow=none;endFill=0;startFill=0;endSize=8;html=1;verticalAlign=bottom;labelBackgroundColor=none;strokeWidth=1;" edge="1" parent="1">
                    <mxGeometry width="160" relative="1" as="geometry">
                        <mxPoint x="90" y="180" as="sourcePoint"/>
                        <mxPoint x="289" y="180" as="targetPoint"/>
                    </mxGeometry>
                </mxCell>
                <mxCell id="15" value="" style="html=1;points=[];perimeter=orthogonalPerimeter;" vertex="1" parent="1">
                    <mxGeometry x="290" y="130" width="10" height="340" as="geometry"/>
                </mxCell>
                <mxCell id="16" value="" style="endArrow=none;startArrow=none;endFill=0;startFill=0;endSize=8;html=1;verticalAlign=bottom;labelBackgroundColor=none;strokeWidth=3;exitX=0.5;exitY=1;exitDx=0;exitDy=0;entryX=0.5;entryY=0;entryDx=0;entryDy=0;" edge="1" parent="1" source="4" target="15">
                    <mxGeometry width="160" relative="1" as="geometry">
                        <mxPoint x="295" y="120" as="sourcePoint"/>
                        <mxPoint x="295" y="630" as="targetPoint"/>
                    </mxGeometry>
                </mxCell>
                <mxCell id="17" value="Enter Text file and Run main" style="text;html=1;strokeColor=none;fillColor=none;align=center;verticalAlign=middle;whiteSpace=wrap;rounded=0;" vertex="1" parent="1">
                    <mxGeometry x="130" y="150" width="100" height="20" as="geometry"/>
                </mxCell>
                <mxCell id="20" value="get2Dvector(9,.txt)" style="text;html=1;strokeColor=none;fillColor=none;align=center;verticalAlign=middle;whiteSpace=wrap;rounded=0;" vertex="1" parent="1">
                    <mxGeometry x="360" y="150" width="100" height="20" as="geometry"/>
                </mxCell>
                <mxCell id="21" value="" style="endArrow=open;startArrow=none;endFill=0;startFill=0;endSize=8;html=1;verticalAlign=bottom;labelBackgroundColor=none;strokeWidth=1;entryX=0;entryY=0.375;entryDx=0;entryDy=0;entryPerimeter=0;" edge="1" parent="1">
                    <mxGeometry width="160" relative="1" as="geometry">
                        <mxPoint x="300" y="180" as="sourcePoint"/>
                        <mxPoint x="500" y="180" as="targetPoint"/>
                    </mxGeometry>
                </mxCell>
                <mxCell id="24" value="" style="endArrow=open;startArrow=none;endFill=0;startFill=0;endSize=8;html=1;verticalAlign=bottom;labelBackgroundColor=none;strokeWidth=1;" edge="1" parent="1">
                    <mxGeometry width="160" relative="1" as="geometry">
                        <mxPoint x="510" y="180" as="sourcePoint"/>
                        <mxPoint x="500" y="200" as="targetPoint"/>
                        <Array as="points">
                            <mxPoint x="600" y="180"/>
                            <mxPoint x="600" y="200"/>
                            <mxPoint x="550" y="200"/>
                        </Array>
                    </mxGeometry>
                </mxCell>
                <mxCell id="25" value="setBoardValue(x,y)" style="text;html=1;strokeColor=none;fillColor=none;align=center;verticalAlign=middle;whiteSpace=wrap;rounded=0;" vertex="1" parent="1">
                    <mxGeometry x="520" y="400" width="100" height="20" as="geometry"/>
                </mxCell>
                <mxCell id="28" value="Puzzle" style="html=1;rounded=0;direction=north;" vertex="1" parent="1">
                    <mxGeometry x="385" y="190" width="50" height="30" as="geometry"/>
                </mxCell>
                <mxCell id="29" value="" style="endArrow=open;html=1;rounded=0;align=center;verticalAlign=top;endFill=0;labelBackgroundColor=none;endSize=6;entryX=0;entryY=0.25;entryDx=0;entryDy=0;" edge="1" target="32" parent="1" source="28">
                    <mxGeometry relative="1" as="geometry">
                        <mxPoint x="303" y="210" as="targetPoint"/>
                    </mxGeometry>
                </mxCell>
                <mxCell id="30" value="" style="endArrow=open;html=1;rounded=0;align=center;verticalAlign=top;endFill=0;labelBackgroundColor=none;endSize=6;" edge="1" parent="1" target="28">
                    <mxGeometry relative="1" as="geometry">
                        <mxPoint x="500" y="205" as="sourcePoint"/>
                        <Array as="points"/>
                    </mxGeometry>
                </mxCell>
                <mxCell id="32" value="Puzzle.print()" style="text;html=1;strokeColor=none;fillColor=none;align=center;verticalAlign=middle;whiteSpace=wrap;rounded=0;" vertex="1" parent="1">
                    <mxGeometry x="300" y="200" width="100" height="20" as="geometry"/>
                </mxCell>
                <mxCell id="33" value="Puzzle" style="html=1;rounded=0;direction=north;" vertex="1" parent="1">
                    <mxGeometry x="385" y="260" width="50" height="30" as="geometry"/>
                </mxCell>
                <mxCell id="34" value="" style="endArrow=open;startArrow=none;endFill=0;startFill=0;endSize=8;html=1;verticalAlign=bottom;labelBackgroundColor=none;strokeWidth=1;entryX=0;entryY=0.375;entryDx=0;entryDy=0;entryPerimeter=0;" edge="1" parent="1">
                    <mxGeometry width="160" relative="1" as="geometry">
                        <mxPoint x="300" y="300" as="sourcePoint"/>
                        <mxPoint x="500" y="300" as="targetPoint"/>
                    </mxGeometry>
                </mxCell>
                <mxCell id="35" value="&lt;span style=&quot;color: rgb(240 , 240 , 240) ; font-family: &amp;#34;helvetica&amp;#34; ; font-size: 12px ; font-style: normal ; font-weight: 400 ; letter-spacing: normal ; text-align: center ; text-indent: 0px ; text-transform: none ; word-spacing: 0px ; background-color: rgb(42 , 42 , 42) ; display: inline ; float: none&quot;&gt;Puzzle.solve()&lt;/span&gt;" style="text;whiteSpace=wrap;html=1;" vertex="1" parent="1">
                    <mxGeometry x="360" y="300" width="100" height="30" as="geometry"/>
                </mxCell>
                <mxCell id="39" value="" style="endArrow=open;startArrow=none;endFill=0;startFill=0;endSize=8;html=1;verticalAlign=bottom;labelBackgroundColor=none;strokeWidth=1;" edge="1" parent="1">
                    <mxGeometry width="160" relative="1" as="geometry">
                        <mxPoint x="510" y="290" as="sourcePoint"/>
                        <mxPoint x="500" y="310" as="targetPoint"/>
                        <Array as="points">
                            <mxPoint x="600" y="290"/>
                            <mxPoint x="600" y="310"/>
                            <mxPoint x="550" y="310"/>
                        </Array>
                    </mxGeometry>
                </mxCell>
                <mxCell id="40" value="solve(0,0)" style="text;html=1;strokeColor=none;fillColor=none;align=center;verticalAlign=middle;whiteSpace=wrap;rounded=0;" vertex="1" parent="1">
                    <mxGeometry x="520" y="265" width="100" height="20" as="geometry"/>
                </mxCell>
                <mxCell id="41" value="" style="endArrow=open;startArrow=none;endFill=0;startFill=0;endSize=8;html=1;verticalAlign=bottom;labelBackgroundColor=none;strokeWidth=1;" edge="1" parent="1">
                    <mxGeometry width="160" relative="1" as="geometry">
                        <mxPoint x="610" y="270" as="sourcePoint"/>
                        <mxPoint x="600" y="290" as="targetPoint"/>
                        <Array as="points">
                            <mxPoint x="700" y="270"/>
                            <mxPoint x="700" y="290"/>
                            <mxPoint x="650" y="290"/>
                        </Array>
                    </mxGeometry>
                </mxCell>
                <mxCell id="42" value="eleminatevalue(x,y)" style="text;html=1;strokeColor=none;fillColor=none;align=center;verticalAlign=middle;whiteSpace=wrap;rounded=0;" vertex="1" parent="1">
                    <mxGeometry x="600" y="240" width="100" height="20" as="geometry"/>
                </mxCell>
                <mxCell id="43" value="" style="endArrow=open;startArrow=none;endFill=0;startFill=0;endSize=8;html=1;verticalAlign=bottom;labelBackgroundColor=none;strokeWidth=1;" edge="1" parent="1">
                    <mxGeometry width="160" relative="1" as="geometry">
                        <mxPoint x="710" y="230" as="sourcePoint"/>
                        <mxPoint x="700" y="250" as="targetPoint"/>
                        <Array as="points">
                            <mxPoint x="800" y="230"/>
                            <mxPoint x="800" y="250"/>
                            <mxPoint x="750" y="250"/>
                        </Array>
                    </mxGeometry>
                </mxCell>
                <mxCell id="44" value="verifyvalue(x,y)" style="text;html=1;strokeColor=none;fillColor=none;align=center;verticalAlign=middle;whiteSpace=wrap;rounded=0;" vertex="1" parent="1">
                    <mxGeometry x="700" y="200" width="100" height="20" as="geometry"/>
                </mxCell>
                <mxCell id="45" value="" style="endArrow=open;startArrow=none;endFill=0;startFill=0;endSize=8;html=1;verticalAlign=bottom;labelBackgroundColor=none;strokeWidth=1;exitX=0.5;exitY=0;exitDx=0;exitDy=0;" edge="1" parent="1" source="44">
                    <mxGeometry width="160" relative="1" as="geometry">
                        <mxPoint x="800" y="160" as="sourcePoint"/>
                        <mxPoint x="620" y="410" as="targetPoint"/>
                        <Array as="points">
                            <mxPoint x="820" y="200"/>
                            <mxPoint x="820" y="410"/>
                        </Array>
                    </mxGeometry>
                </mxCell>
                <mxCell id="54" value="" style="edgeStyle=orthogonalEdgeStyle;rounded=0;orthogonalLoop=1;jettySize=auto;html=1;" edge="1" parent="1" source="48">
                    <mxGeometry relative="1" as="geometry">
                        <mxPoint x="295" y="415" as="targetPoint"/>
                    </mxGeometry>
                </mxCell>
                <mxCell id="48" value="Puzzle" style="html=1;rounded=0;direction=north;" vertex="1" parent="1">
                    <mxGeometry x="375" y="400" width="50" height="30" as="geometry"/>
                </mxCell>
                <mxCell id="49" value="" style="endArrow=open;html=1;rounded=0;align=center;verticalAlign=top;endFill=0;labelBackgroundColor=none;endSize=6;" edge="1" parent="1">
                    <mxGeometry relative="1" as="geometry">
                        <mxPoint x="430" y="410" as="targetPoint"/>
                        <mxPoint x="500" y="410" as="sourcePoint"/>
                        <Array as="points">
                            <mxPoint x="460" y="410"/>
                        </Array>
                    </mxGeometry>
                </mxCell>
                <mxCell id="50" value="Puzzle.print()" style="text;html=1;strokeColor=none;fillColor=none;align=center;verticalAlign=middle;whiteSpace=wrap;rounded=0;" vertex="1" parent="1">
                    <mxGeometry x="290" y="420" width="100" height="20" as="geometry"/>
                </mxCell>
                <mxCell id="55" value="setBoardValue(x,y)" style="text;html=1;strokeColor=none;fillColor=none;align=center;verticalAlign=middle;whiteSpace=wrap;rounded=0;" vertex="1" parent="1">
                    <mxGeometry x="520" y="160" width="100" height="20" as="geometry"/>
                </mxCell>
            </root>
        </mxGraphModel>
    </diagram>
</mxfile>